<svg width="24" height="24" viewBox="0 0 24 24" fill="none" xmlns="http://www.w3.org/2000/svg">
<path d="M20.71 8.12001V17.53C20.71 19.99 18.7 22 16.24 22H7.76004C5.30004 22 3.29004 19.99 3.29004 17.53V8.12001C3.29004 6.41001 4.25004 4.92001 5.66004 4.17001C6.15004 3.91001 6.76004 4.26001 6.76004 4.82001C6.76004 6.41001 8.06004 7.71001 9.65004 7.71001H14.35C15.94 7.71001 17.24 6.41001 17.24 4.82001C17.24 4.26001 17.84 3.91001 18.34 4.17001C19.75 4.92001 20.71 6.41001 20.71 8.12001Z" fill="#371071"/>
<path d="M14.35 2H9.65001C8.61001 2 7.76001 2.84 7.76001 3.88V4.82C7.76001 5.86 8.60001 6.7 9.64001 6.7H14.35C15.39 6.7 16.23 5.86 16.23 4.82V3.88C16.24 2.84 15.39 2 14.35 2Z" fill="#371071"/>
</svg>
