<svg width="190" height="64" viewBox="0 0 190 64" fill="none" xmlns="http://www.w3.org/2000/svg">
<g clip-path="url(#clip0_48_2157)">
<path d="M87.331 46.3524C95.7415 46.3524 100.47 40.1943 100.47 32.4664C100.47 24.7384 95.7491 18.6183 87.331 18.6183V24.5716C91.8095 24.5716 93.5022 28.5379 93.5022 32.4664C93.5022 36.4327 91.8019 40.3611 87.331 40.3611V46.3524ZM74.1535 32.4664C74.1535 40.1943 78.9205 46.36 87.331 46.36V40.3611C82.8145 40.3611 81.1142 36.4327 81.1142 32.4664C81.1142 28.5379 82.8145 24.5716 87.331 24.5716V18.6183C78.9205 18.6183 74.1535 24.7309 74.1535 32.4664ZM111.697 37.5855C112.896 37.3428 114.225 37.1759 114.969 36.7209C115.09 40.437 114.225 42.1813 111.697 42.386V45.9429C112.98 45.5712 114.141 44.9114 115.098 43.9559C115.143 44.5778 115.219 45.1996 115.47 45.776H121.853C121.11 44.2441 121.11 42.4695 121.11 40.8162V32.3374C121.11 26.8847 116.639 25.8457 112.077 25.8457C111.955 25.8457 111.826 25.8457 111.705 25.8912V29.9865H111.993C113.276 29.9865 115.06 30.5249 115.06 31.9658C115.06 33.1641 114.437 33.5357 113.359 33.786C112.821 33.8694 112.282 33.9528 111.705 34.0362L111.697 37.5855ZM108.426 40.2322C108.426 38.7003 109.625 38.0784 111.037 37.7523C111.249 37.7068 111.492 37.6689 111.705 37.5855V34.0286C107.439 34.6505 102.087 34.9387 102.087 40.4749C102.087 44.4868 104.987 46.3448 108.676 46.3448C109.716 46.3448 110.71 46.2159 111.705 45.9277V42.3709C111.5 42.4164 111.287 42.4164 111.082 42.4164C109.67 42.424 108.426 41.8021 108.426 40.2322ZM111.697 25.8912V29.9865C110.08 30.0699 109.086 30.851 108.797 32.383H102.877C102.96 29.8575 104.16 28.2043 105.898 27.2108C107.515 26.3083 109.625 25.8912 111.697 25.8912ZM124.67 45.776H131.053V35.2345C131.053 33.0882 132.086 31.1013 134.492 31.1013C137.931 31.1013 137.642 33.786 137.642 36.4327V45.776H144.026V33.3688C144.026 30.5552 143.487 25.8457 137.02 25.8457C134.697 25.8457 132.086 27.0894 130.932 29.0688H130.848V26.4221H124.677L124.67 45.776ZM156.907 30.7297C159.64 30.7297 160.68 33.293 160.68 36.1066C160.68 38.5486 159.974 41.4836 156.907 41.4836H156.824V46.1855C158.395 45.8518 159.723 44.9418 160.68 43.5388H160.725V45.7684H166.813V18.6183H160.467L160.422 28.5379H160.338C159.427 27.2942 158.266 26.4676 156.816 26.096V30.7221L156.907 30.7297ZM156.824 41.476C153.962 41.4381 153.013 38.541 153.013 35.8943C153.013 33.4523 153.97 30.7676 156.824 30.7297V26.1035C156.171 25.9367 155.503 25.8533 154.835 25.8533C149.324 25.8533 146.63 30.6463 146.63 35.6895C146.63 41.1044 149.241 46.3524 155.328 46.3524C155.822 46.3524 156.361 46.269 156.816 46.1855L156.824 41.476ZM179.528 30.7297C182.473 30.7297 183.384 33.6646 183.384 36.1445C183.384 38.5865 182.473 41.476 179.528 41.476V46.3524C185.539 46.3069 189.767 41.931 189.767 36.1369C189.767 30.305 185.539 25.8836 179.535 25.8457L179.528 30.7297ZM175.679 36.1445C175.679 33.6646 176.552 30.7297 179.535 30.7297V25.8533C173.523 25.8533 169.341 30.3201 169.341 36.1445C169.341 41.931 173.523 46.36 179.535 46.36V41.4836C176.544 41.476 175.679 38.5789 175.679 36.1445Z" fill="#371071"/>
<path d="M29.3077 0C47.7531 0 58.6154 11.9673 58.6154 31.9431C58.6154 52.0327 47.7531 64 29.3077 64C10.8623 64 0 52.0327 0 31.9431C0 11.9673 10.8623 0 29.3077 0Z" fill="#F5D400"/>
<path d="M29.3077 60.39C13.5798 60.39 7.24152 46.6178 7.24152 31.9431C7.24152 17.2683 13.5798 3.49609 29.3077 3.49609C45.0356 3.49609 51.3738 17.2683 51.3738 31.9431C51.3738 46.6178 45.0356 60.39 29.3077 60.39Z" fill="#F2B300"/>
<path d="M41.1871 20.0896C48.9979 27.8782 53.1804 38.7155 44.5802 47.2928C35.9799 55.7639 25.1176 51.5852 17.4282 43.9104C9.6174 36.1218 5.43492 25.2845 14.0352 16.7072C22.514 8.12986 33.4977 12.301 41.1871 20.0896Z" fill="#E86E18"/>
<path d="M20.9351 23.7071C26.5902 18.0647 34.1733 15.3573 40.0561 21.2196C46.0528 27.0895 43.2214 34.6505 37.6802 40.2929C32.0251 45.8215 24.442 48.6427 18.5592 42.7804C12.5626 36.7968 15.3863 29.2357 20.9351 23.7071Z" fill="#D30021"/>
<path d="M29.3077 39.618C24.4421 39.618 19.5764 37.4718 19.5764 31.9432C19.5764 26.5283 24.4421 24.3821 29.3077 24.3821C34.1733 24.3821 39.039 26.5283 39.039 31.9432C39.039 37.4794 34.1733 39.618 29.3077 39.618Z" fill="#371071"/>
</g>
<defs>
<clipPath id="clip0_48_2157">
<rect width="189.767" height="64" fill="white"/>
</clipPath>
</defs>
</svg>
