<svg width="123" height="71" viewBox="0 0 123 71" fill="none" xmlns="http://www.w3.org/2000/svg">
<path d="M31.6094 58.3906C32.0208 57.4323 32.6224 56.401 33.4141 55.2969H35.0938L34.6172 56.1719C33.9609 57.375 33.5052 58.6354 33.25 59.9531C33.0833 60.8177 33 61.7604 33 62.7812C33 64.375 33.2318 65.8411 33.6953 67.1797C33.9661 67.9714 34.4453 68.987 35.1328 70.2266H33.4844L32.9297 69.4688C32.5703 69.0104 32.1875 68.3281 31.7812 67.4219C31.0573 65.8021 30.6953 64.2083 30.6953 62.6406C30.6953 61.2135 31 59.7969 31.6094 58.3906ZM39.7266 60.0938C39.2109 60.0938 38.8099 60.2552 38.5234 60.5781C38.2422 60.901 38.0651 61.3385 37.9922 61.8906H41.4531C41.4167 61.3021 41.237 60.8568 40.9141 60.5547C40.5964 60.2474 40.2005 60.0938 39.7266 60.0938ZM39.7266 58.2578C40.4349 58.2578 41.0729 58.3906 41.6406 58.6562C42.2083 58.9219 42.6771 59.3411 43.0469 59.9141C43.3802 60.4193 43.5964 61.0052 43.6953 61.6719C43.7526 62.0625 43.776 62.625 43.7656 63.3594H37.9375C37.9688 64.2135 38.237 64.8125 38.7422 65.1562C39.0495 65.3698 39.4193 65.4766 39.8516 65.4766C40.3099 65.4766 40.6823 65.3464 40.9688 65.0859C41.125 64.9453 41.263 64.75 41.3828 64.5H43.6562C43.599 65.0052 43.3359 65.5182 42.8672 66.0391C42.138 66.8672 41.1172 67.2812 39.8047 67.2812C38.7214 67.2812 37.7656 66.9323 36.9375 66.2344C36.1094 65.5365 35.6953 64.401 35.6953 62.8281C35.6953 61.3542 36.0677 60.224 36.8125 59.4375C37.5625 58.651 38.5339 58.2578 39.7266 58.2578ZM44.6016 61.4844H49.0859V63.5938H44.6016V61.4844ZM57.2656 59.1484C57.2656 58.5495 57.1068 58.1224 56.7891 57.8672C56.4766 57.612 56.0365 57.4844 55.4688 57.4844H53.2266V60.875H55.4688C56.0365 60.875 56.4766 60.737 56.7891 60.4609C57.1068 60.1849 57.2656 59.7474 57.2656 59.1484ZM59.6484 59.1328C59.6484 60.4922 59.3047 61.4531 58.6172 62.0156C57.9297 62.5781 56.9479 62.8594 55.6719 62.8594H53.2266V67H50.8359V55.4844H55.8516C57.0078 55.4844 57.9297 55.7812 58.6172 56.375C59.3047 56.9688 59.6484 57.888 59.6484 59.1328ZM69.8203 55.4844V57.5234H66.375V67H63.9531V57.5234H60.4922V55.4844H69.8203ZM72.8047 55.4844L74.3281 62.0781L74.6562 63.9141L74.9922 62.1172L76.2891 55.4844H78.8281L80.1953 62.0781L80.5469 63.9141L80.8984 62.1484L82.4375 55.4844H84.8828L81.6406 67H79.3438L77.9531 60.2656L77.5469 58.0391L77.1406 60.2656L75.75 67H73.5156L70.25 55.4844H72.8047ZM87.0078 55.2969C87.7995 56.401 88.401 57.4323 88.8125 58.3906C89.4219 59.7969 89.7266 61.2135 89.7266 62.6406C89.7266 64.2083 89.3646 65.8021 88.6406 67.4219C88.2344 68.3281 87.8516 69.0104 87.4922 69.4688L86.9375 70.2266H85.2891C85.9766 68.987 86.4557 67.9714 86.7266 67.1797C87.1901 65.8411 87.4219 64.375 87.4219 62.7812C87.4219 61.7604 87.3385 60.8177 87.1719 59.9531C86.9167 58.6354 86.4609 57.375 85.8047 56.1719L85.3281 55.2969H87.0078Z" fill="#E86E18"/>
<g clip-path="url(#clip0_0_1)">
<path d="M57.7247 27.9703C62.9812 27.9703 65.9369 24.1215 65.9369 19.2915C65.9369 14.4616 62.986 10.6365 57.7247 10.6365V14.3573C60.5237 14.3573 61.5817 16.8363 61.5817 19.2915C61.5817 21.7705 60.519 24.2258 57.7247 24.2258V27.9703ZM49.4888 19.2915C49.4888 24.1215 52.4681 27.975 57.7247 27.975V24.2258C54.9019 24.2258 53.8392 21.7705 53.8392 19.2915C53.8392 16.8363 54.9019 14.3573 57.7247 14.3573V10.6365C52.4681 10.6365 49.4888 14.4568 49.4888 19.2915ZM72.9535 22.491C73.7031 22.3393 74.5333 22.235 74.9983 21.9506C75.0742 24.2732 74.5333 25.3633 72.9535 25.4913V27.7143C73.7553 27.4821 74.4811 27.0697 75.0789 26.4725C75.1074 26.8611 75.1548 27.2498 75.3114 27.61H79.3012C78.8363 26.6526 78.8363 25.5435 78.8363 24.5102V19.2109C78.8363 15.803 76.042 15.1536 73.1907 15.1536C73.1148 15.1536 73.0342 15.1536 72.9583 15.182V17.7416H73.1385C73.9403 17.7416 75.0552 18.0781 75.0552 18.9787C75.0552 19.7276 74.6662 19.9599 73.9925 20.1163C73.6557 20.1684 73.3188 20.2205 72.9583 20.2727L72.9535 22.491ZM70.9088 24.1452C70.9088 23.1877 71.6583 22.7991 72.5408 22.5952C72.6736 22.5668 72.8254 22.5431 72.9583 22.491V20.2679C70.292 20.6566 66.9474 20.8367 66.9474 24.2969C66.9474 26.8043 68.7596 27.9655 71.0653 27.9655C71.7153 27.9655 72.3368 27.885 72.9583 27.7048V25.4818C72.8302 25.5103 72.6973 25.5103 72.5692 25.5103C71.6868 25.515 70.9088 25.1263 70.9088 24.1452ZM72.9535 15.182V17.7416C71.943 17.7937 71.3215 18.2819 71.1412 19.2394H67.4408C67.493 17.661 68.2425 16.6277 69.329 16.0068C70.3395 15.4427 71.6583 15.182 72.9535 15.182ZM81.0613 27.61H85.0512V21.0216C85.0512 19.6802 85.6964 18.4383 87.2003 18.4383C89.3494 18.4383 89.1691 20.1163 89.1691 21.7705V27.61H93.159V19.8556C93.159 18.0971 92.8222 15.1536 88.7801 15.1536C87.3284 15.1536 85.6964 15.9309 84.9753 17.1681H84.9231V15.5138H81.0661L81.0613 27.61ZM101.21 18.2061C102.918 18.2061 103.568 19.8082 103.568 21.5667C103.568 23.0929 103.127 24.9273 101.21 24.9273H101.158V27.866C102.14 27.6574 102.97 27.0887 103.568 26.2118H103.596V27.6053H107.401V10.6365H103.435L103.406 16.8363H103.354C102.785 16.0589 102.059 15.5423 101.153 15.31V18.2014L101.21 18.2061ZM101.158 24.9225C99.3691 24.8988 98.7761 23.0882 98.7761 21.434C98.7761 19.9077 99.3739 18.2298 101.158 18.2061V15.3148C100.75 15.2105 100.332 15.1583 99.9147 15.1583C96.4704 15.1583 94.7863 18.154 94.7863 21.306C94.7863 24.6903 96.4183 27.9703 100.223 27.9703C100.531 27.9703 100.868 27.9181 101.153 27.866L101.158 24.9225ZM115.348 18.2061C117.188 18.2061 117.758 20.0404 117.758 21.5904C117.758 23.1166 117.188 24.9225 115.348 24.9225V27.9703C119.105 27.9418 121.747 25.2069 121.747 21.5856C121.747 17.9407 119.105 15.1773 115.352 15.1536L115.348 18.2061ZM112.942 21.5904C112.942 20.0404 113.488 18.2061 115.352 18.2061V15.1583C111.595 15.1583 108.981 17.9501 108.981 21.5904C108.981 25.2069 111.595 27.975 115.352 27.975V24.9273C113.483 24.9225 112.942 23.1119 112.942 21.5904Z" fill="#371071"/>
</g>
<g clip-path="url(#clip1_0_1)">
<path d="M18.388 0C29.9609 0 36.776 7.47956 36.776 19.9645C36.776 32.5204 29.9609 40 18.388 40C6.81514 40 0 32.5204 0 19.9645C0 7.47956 6.81514 0 18.388 0Z" fill="#F5D400"/>
<path d="M18.3881 37.7438C8.52015 37.7438 4.54346 29.1361 4.54346 19.9644C4.54346 10.7927 8.52015 2.18506 18.3881 2.18506C28.256 2.18506 32.2326 10.7927 32.2326 19.9644C32.2326 29.1361 28.256 37.7438 18.3881 37.7438Z" fill="#F2B300"/>
<path d="M25.8413 12.5559C30.742 17.4238 33.3661 24.1971 27.9702 29.5579C22.5743 34.8524 15.7591 32.2407 10.9347 27.444C6.03408 22.5761 3.40995 15.8028 8.80586 10.4419C14.1256 5.08112 21.0169 7.68806 25.8413 12.5559Z" fill="#E86E18"/>
<path d="M13.135 14.817C16.6831 11.2905 21.4408 9.59833 25.1317 13.2623C28.8941 16.931 27.1177 21.6566 23.6411 25.1831C20.093 28.6385 15.3353 30.4017 11.6443 26.7378C7.88195 22.998 9.6536 18.2723 13.135 14.817Z" fill="#D30021"/>
<path d="M18.388 24.7612C15.3352 24.7612 12.2825 23.4198 12.2825 19.9644C12.2825 16.5802 15.3352 15.2388 18.388 15.2388C21.4408 15.2388 24.4935 16.5802 24.4935 19.9644C24.4935 23.4246 21.4408 24.7612 18.388 24.7612Z" fill="#371071"/>
</g>
<defs>
<clipPath id="clip0_0_1">
<rect width="73" height="22" fill="white" transform="translate(49.1428 9)"/>
</clipPath>
<clipPath id="clip1_0_1">
<rect width="37.1429" height="40" fill="white"/>
</clipPath>
</defs>
</svg>
