<svg width="123" height="40" viewBox="0 0 123 40" fill="none" xmlns="http://www.w3.org/2000/svg">
<g clip-path="url(#clip0_2898_34890)">
<path d="M57.7247 27.9705C62.9812 27.9705 65.9369 24.1217 65.9369 19.2918C65.9369 14.4618 62.986 10.6367 57.7247 10.6367V14.3575C60.5237 14.3575 61.5817 16.8365 61.5817 19.2918C61.5817 21.7707 60.519 24.226 57.7247 24.226V27.9705ZM49.4888 19.2918C49.4888 24.1217 52.4681 27.9753 57.7247 27.9753V24.226C54.9019 24.226 53.8392 21.7707 53.8392 19.2918C53.8392 16.8365 54.9019 14.3575 57.7247 14.3575V10.6367C52.4681 10.6367 49.4888 14.4571 49.4888 19.2918ZM72.9535 22.4912C73.7031 22.3395 74.5333 22.2352 74.9983 21.9509C75.0742 24.2734 74.5333 25.3636 72.9535 25.4916V27.7146C73.7553 27.4823 74.4811 27.0699 75.0789 26.4727C75.1074 26.8614 75.1548 27.2501 75.3114 27.6103H79.3012C78.8363 26.6528 78.8363 25.5437 78.8363 24.5104V19.2112C78.8363 15.8032 76.042 15.1538 73.1907 15.1538C73.1148 15.1538 73.0342 15.1538 72.9583 15.1823V17.7418H73.1385C73.9403 17.7418 75.0552 18.0784 75.0552 18.9789C75.0552 19.7278 74.6662 19.9601 73.9925 20.1165C73.6557 20.1687 73.3188 20.2208 72.9583 20.2729L72.9535 22.4912ZM70.9088 24.1454C70.9088 23.188 71.6583 22.7993 72.5408 22.5955C72.6736 22.567 72.8254 22.5433 72.9583 22.4912V20.2682C70.292 20.6569 66.9474 20.837 66.9474 24.2971C66.9474 26.8045 68.7596 27.9658 71.0653 27.9658C71.7153 27.9658 72.3368 27.8852 72.9583 27.7051V25.4821C72.8302 25.5105 72.6973 25.5105 72.5692 25.5105C71.6868 25.5153 70.9088 25.1266 70.9088 24.1454ZM72.9535 15.1823V17.7418C71.943 17.794 71.3215 18.2822 71.1412 19.2396H67.4408C67.493 17.6612 68.2425 16.6279 69.329 16.007C70.3395 15.443 71.6583 15.1823 72.9535 15.1823ZM81.0613 27.6103H85.0512V21.0218C85.0512 19.6804 85.6964 18.4386 87.2003 18.4386C89.3494 18.4386 89.1691 20.1165 89.1691 21.7707V27.6103H93.159V19.8558C93.159 18.0973 92.8222 15.1538 88.7801 15.1538C87.3284 15.1538 85.6964 15.9312 84.9753 17.1683H84.9231V15.5141H81.0661L81.0613 27.6103ZM101.21 18.2063C102.918 18.2063 103.568 19.8084 103.568 21.5669C103.568 23.0932 103.127 24.9275 101.21 24.9275H101.158V27.8662C102.14 27.6577 102.97 27.0889 103.568 26.212H103.596V27.6056H107.401V10.6367H103.435L103.406 16.8365H103.354C102.785 16.0592 102.059 15.5425 101.153 15.3103V18.2016L101.21 18.2063ZM101.158 24.9228C99.3691 24.8991 98.7761 23.0884 98.7761 21.4342C98.7761 19.908 99.3739 18.23 101.158 18.2063V15.315C100.75 15.2107 100.332 15.1586 99.9147 15.1586C96.4704 15.1586 94.7863 18.1542 94.7863 21.3062C94.7863 24.6905 96.4183 27.9705 100.223 27.9705C100.531 27.9705 100.868 27.9184 101.153 27.8662L101.158 24.9228ZM115.348 18.2063C117.188 18.2063 117.758 20.0407 117.758 21.5906C117.758 23.1169 117.188 24.9228 115.348 24.9228V27.9705C119.105 27.9421 121.747 25.2072 121.747 21.5859C121.747 17.9409 119.105 15.1775 115.352 15.1538L115.348 18.2063ZM112.942 21.5906C112.942 20.0407 113.488 18.2063 115.352 18.2063V15.1586C111.595 15.1586 108.981 17.9504 108.981 21.5906C108.981 25.2072 111.595 27.9753 115.352 27.9753V24.9275C113.483 24.9228 112.942 23.1121 112.942 21.5906Z" fill="#371071"/>
</g>
<g clip-path="url(#clip1_2898_34890)">
<path d="M18.388 0C29.9609 0 36.776 7.47956 36.776 19.9645C36.776 32.5204 29.9609 40 18.388 40C6.81514 40 0 32.5204 0 19.9645C0 7.47956 6.81514 0 18.388 0Z" fill="#F5D400"/>
<path d="M18.3881 37.7423C8.52015 37.7423 4.54346 29.1347 4.54346 19.963C4.54346 10.7912 8.52015 2.18359 18.3881 2.18359C28.256 2.18359 32.2326 10.7912 32.2326 19.963C32.2326 29.1347 28.256 37.7423 18.3881 37.7423Z" fill="#F2B300"/>
<path d="M25.8414 12.5578C30.742 17.4256 33.3662 24.199 27.9702 29.5598C22.5743 34.8542 15.7592 32.2426 10.9348 27.4458C6.03415 22.5779 3.41001 15.8046 8.80592 10.4438C14.1256 5.08295 21.017 7.68989 25.8414 12.5578Z" fill="#E86E18"/>
<path d="M13.135 14.8175C16.6831 11.291 21.4408 9.59882 25.1317 13.2628C28.8941 16.9314 27.1177 21.6571 23.6411 25.1836C20.093 28.639 15.3353 30.4022 11.6443 26.7383C7.88195 22.9985 9.6536 18.2728 13.135 14.8175Z" fill="#D30021"/>
<path d="M18.388 24.7607C15.3352 24.7607 12.2825 23.4193 12.2825 19.964C12.2825 16.5797 15.3352 15.2383 18.388 15.2383C21.4408 15.2383 24.4935 16.5797 24.4935 19.964C24.4935 23.4241 21.4408 24.7607 18.388 24.7607Z" fill="#371071"/>
</g>
<defs>
<clipPath id="clip0_2898_34890">
<rect width="73" height="22" fill="white" transform="translate(49.1428 9)"/>
</clipPath>
<clipPath id="clip1_2898_34890">
<rect width="37.1429" height="40" fill="white"/>
</clipPath>
</defs>
</svg>
