<svg width="1184" height="1024" viewBox="0 0 1184 1024" fill="none" xmlns="http://www.w3.org/2000/svg">
<g opacity="0.2" filter="url(#filter0_f_48_2149)">
<path d="M592 62C851.301 62 1004 230.233 1004 511.048C1004 793.463 851.301 961.696 592 961.696C332.699 961.696 180 793.463 180 511.048C180 230.233 332.699 62 592 62Z" fill="#F5D400"/>
<path d="M592 910.949C370.901 910.949 281.8 717.342 281.8 511.048C281.8 304.755 370.901 111.148 592 111.148C813.099 111.148 902.2 304.755 902.2 511.048C902.2 717.342 813.099 910.949 592 910.949Z" fill="#F2B300"/>
<path d="M758.998 344.414C868.801 453.904 927.597 606.252 806.697 726.83C685.796 845.915 533.097 787.172 425.002 679.281C315.199 569.791 256.403 417.443 377.303 296.865C496.496 176.288 650.903 234.924 758.998 344.414Z" fill="#E86E18"/>
<path d="M474.301 395.268C553.798 315.949 660.4 277.889 743.099 360.3C827.398 442.817 787.596 549.109 709.699 628.428C630.201 706.148 523.6 745.807 440.901 663.396C356.602 579.28 396.297 472.988 474.301 395.268Z" fill="#D30021"/>
<path d="M592 618.939C523.6 618.939 455.2 588.768 455.2 511.048C455.2 434.928 523.6 404.756 592 404.756C660.4 404.756 728.8 434.928 728.8 511.048C728.8 588.875 660.4 618.939 592 618.939Z" fill="#371071"/>
</g>
<defs>
<filter id="filter0_f_48_2149" x="0" y="-118" width="1184" height="1259.7" filterUnits="userSpaceOnUse" color-interpolation-filters="sRGB">
<feFlood flood-opacity="0" result="BackgroundImageFix"/>
<feBlend mode="normal" in="SourceGraphic" in2="BackgroundImageFix" result="shape"/>
<feGaussianBlur stdDeviation="90" result="effect1_foregroundBlur_48_2149"/>
</filter>
</defs>
</svg>
