<svg width="18" height="18" viewBox="0 0 18 18" fill="none" xmlns="http://www.w3.org/2000/svg">
<path fill-rule="evenodd" clip-rule="evenodd" d="M9 0.875C4.5125 0.875 0.875 4.5125 0.875 9C0.875 13.4875 4.5125 17.125 9 17.125C13.4875 17.125 17.125 13.4875 17.125 9C17.125 4.5125 13.4875 0.875 9 0.875ZM9.625 6.5C9.625 6.33424 9.55915 6.17527 9.44194 6.05806C9.32473 5.94085 9.16576 5.875 9 5.875C8.83424 5.875 8.67527 5.94085 8.55806 6.05806C8.44085 6.17527 8.375 6.33424 8.375 6.5V8.375H6.5C6.33424 8.375 6.17527 8.44085 6.05806 8.55806C5.94085 8.67527 5.875 8.83424 5.875 9C5.875 9.16576 5.94085 9.32473 6.05806 9.44194C6.17527 9.55915 6.33424 9.625 6.5 9.625H8.375V11.5C8.375 11.6658 8.44085 11.8247 8.55806 11.9419C8.67527 12.0592 8.83424 12.125 9 12.125C9.16576 12.125 9.32473 12.0592 9.44194 11.9419C9.55915 11.8247 9.625 11.6658 9.625 11.5V9.625H11.5C11.6658 9.625 11.8247 9.55915 11.9419 9.44194C12.0592 9.32473 12.125 9.16576 12.125 9C12.125 8.83424 12.0592 8.67527 11.9419 8.55806C11.8247 8.44085 11.6658 8.375 11.5 8.375H9.625V6.5Z" fill="#E86E18"/>
</svg>
