<svg width="137" height="56" viewBox="0 0 137 56" fill="none" xmlns="http://www.w3.org/2000/svg">
<g clip-path="url(#clip0_82_2493)">
<path d="M25.7432 0C41.9453 0 51.4865 10.4714 51.4865 27.9502C51.4865 45.5286 41.9453 56 25.7432 56C9.5412 56 0 45.5286 0 27.9502C0 10.4714 9.5412 0 25.7432 0Z" fill="#F5D400"/>
<path d="M25.7432 52.8413C11.9281 52.8413 6.36078 40.7906 6.36078 27.9502C6.36078 15.1099 11.9281 3.05914 25.7432 3.05914C39.5583 3.05914 45.1256 15.1099 45.1256 27.9502C45.1256 40.7906 39.5583 52.8413 25.7432 52.8413Z" fill="#F2B300"/>
<path d="M36.1779 17.5784C43.0387 24.3934 46.7125 33.876 39.1582 41.3812C31.604 48.7935 22.0628 45.1371 15.3086 38.4216C8.44772 31.6066 4.77392 22.1239 12.3282 14.6188C19.7758 7.11364 29.4237 10.7634 36.1779 17.5784Z" fill="#E86E18"/>
<path d="M18.389 20.7437C23.3563 15.8066 30.0171 13.4376 35.1844 18.5671C40.4518 23.7033 37.9648 30.3192 33.0975 35.2563C28.1302 40.0939 21.4694 42.5624 16.3021 37.4329C11.0347 32.1972 13.5151 25.5812 18.389 20.7437Z" fill="#D30021"/>
<path d="M25.7432 34.6657C21.4694 34.6657 17.1955 32.7878 17.1955 27.9502C17.1955 23.2122 21.4694 21.3343 25.7432 21.3343C30.0171 21.3343 34.291 23.2122 34.291 27.9502C34.291 32.7944 30.0171 34.6657 25.7432 34.6657Z" fill="#371071"/>
</g>
<g clip-path="url(#clip1_82_2493)">
<path d="M72.5819 22.9703C77.8384 22.9703 80.794 19.1215 80.794 14.2915C80.794 9.46157 77.8432 5.63647 72.5819 5.63647V9.35729C75.3809 9.35729 76.4389 11.8363 76.4389 14.2915C76.4389 16.7705 75.3762 19.2258 72.5819 19.2258V22.9703ZM64.3459 14.2915C64.3459 19.1215 67.3253 22.975 72.5819 22.975V19.2258C69.7591 19.2258 68.6964 16.7705 68.6964 14.2915C68.6964 11.8363 69.7591 9.35729 72.5819 9.35729V5.63647C67.3253 5.63647 64.3459 9.45683 64.3459 14.2915ZM87.8107 17.491C88.5603 17.3393 89.3905 17.235 89.8554 16.9506C89.9313 19.2732 89.3905 20.3633 87.8107 20.4913V22.7143C88.6125 22.4821 89.3383 22.0697 89.9361 21.4725C89.9646 21.8611 90.012 22.2498 90.1685 22.61H94.1584C93.6935 21.6526 93.6935 20.5435 93.6935 19.5102V14.2109C93.6935 10.803 90.8992 10.1536 88.0479 10.1536C87.972 10.1536 87.8913 10.1536 87.8154 10.182V12.7416H87.9957C88.7975 12.7416 89.9124 13.0781 89.9124 13.9787C89.9124 14.7276 89.5233 14.9599 88.8497 15.1163C88.5128 15.1684 88.176 15.2205 87.8154 15.2727L87.8107 17.491ZM85.7659 19.1452C85.7659 18.1877 86.5155 17.7991 87.3979 17.5952C87.5308 17.5668 87.6826 17.5431 87.8154 17.491V15.2679C85.1492 15.6566 81.8046 15.8367 81.8046 19.2969C81.8046 21.8043 83.6168 22.9655 85.9225 22.9655C86.5725 22.9655 87.1939 22.885 87.8154 22.7048V20.4818C87.6873 20.5103 87.5545 20.5103 87.4264 20.5103C86.544 20.515 85.7659 20.1263 85.7659 19.1452ZM87.8107 10.182V12.7416C86.8002 12.7937 86.1787 13.2819 85.9984 14.2394H82.2979C82.3501 12.661 83.0997 11.6277 84.1861 11.0068C85.1966 10.4427 86.5155 10.182 87.8107 10.182ZM95.9185 22.61H99.9084V16.0216C99.9084 14.6802 100.554 13.4383 102.057 13.4383C104.207 13.4383 104.026 15.1163 104.026 16.7705V22.61H108.016V14.8556C108.016 13.0971 107.679 10.1536 103.637 10.1536C102.186 10.1536 100.554 10.9309 99.8325 12.1681H99.7803V10.5138H95.9232L95.9185 22.61ZM116.067 13.2061C117.775 13.2061 118.425 14.8082 118.425 16.5667C118.425 18.0929 117.984 19.9273 116.067 19.9273H116.015V22.866C116.997 22.6574 117.827 22.0887 118.425 21.2118H118.453V22.6053H122.258V5.63647H118.292L118.264 11.8363H118.211C117.642 11.0589 116.916 10.5423 116.01 10.31V13.2014L116.067 13.2061ZM116.015 19.9225C114.226 19.8988 113.633 18.0882 113.633 16.434C113.633 14.9077 114.231 13.2298 116.015 13.2061V10.3148C115.607 10.2105 115.189 10.1583 114.772 10.1583C111.328 10.1583 109.643 13.154 109.643 16.306C109.643 19.6903 111.275 22.9703 115.08 22.9703C115.389 22.9703 115.725 22.9181 116.01 22.866L116.015 19.9225ZM130.205 13.2061C132.045 13.2061 132.615 15.0404 132.615 16.5904C132.615 18.1166 132.045 19.9225 130.205 19.9225V22.9703C133.962 22.9418 136.605 20.2069 136.605 16.5856C136.605 12.9407 133.962 10.1773 130.209 10.1536L130.205 13.2061ZM127.799 16.5904C127.799 15.0404 128.345 13.2061 130.209 13.2061V10.1583C126.452 10.1583 123.838 12.9501 123.838 16.5904C123.838 20.2069 126.452 22.975 130.209 22.975V19.9273C128.34 19.9225 127.799 18.1119 127.799 16.5904Z" fill="#371071"/>
</g>
<path d="M65.6094 40.3906C66.0208 39.4323 66.6224 38.401 67.4141 37.2969H69.0938L68.6172 38.1719C67.9609 39.375 67.5052 40.6354 67.25 41.9531C67.0833 42.8177 67 43.7604 67 44.7812C67 46.375 67.2318 47.8411 67.6953 49.1797C67.9661 49.9714 68.4453 50.987 69.1328 52.2266H67.4844L66.9297 51.4688C66.5703 51.0104 66.1875 50.3281 65.7812 49.4219C65.0573 47.8021 64.6953 46.2083 64.6953 44.6406C64.6953 43.2135 65 41.7969 65.6094 40.3906ZM73.7266 42.0938C73.2109 42.0938 72.8099 42.2552 72.5234 42.5781C72.2422 42.901 72.0651 43.3385 71.9922 43.8906H75.4531C75.4167 43.3021 75.237 42.8568 74.9141 42.5547C74.5964 42.2474 74.2005 42.0938 73.7266 42.0938ZM73.7266 40.2578C74.4349 40.2578 75.0729 40.3906 75.6406 40.6562C76.2083 40.9219 76.6771 41.3411 77.0469 41.9141C77.3802 42.4193 77.5964 43.0052 77.6953 43.6719C77.7526 44.0625 77.776 44.625 77.7656 45.3594H71.9375C71.9688 46.2135 72.237 46.8125 72.7422 47.1562C73.0495 47.3698 73.4193 47.4766 73.8516 47.4766C74.3099 47.4766 74.6823 47.3464 74.9688 47.0859C75.125 46.9453 75.263 46.75 75.3828 46.5H77.6562C77.599 47.0052 77.3359 47.5182 76.8672 48.0391C76.138 48.8672 75.1172 49.2812 73.8047 49.2812C72.7214 49.2812 71.7656 48.9323 70.9375 48.2344C70.1094 47.5365 69.6953 46.401 69.6953 44.8281C69.6953 43.3542 70.0677 42.224 70.8125 41.4375C71.5625 40.651 72.5339 40.2578 73.7266 40.2578ZM78.6016 43.4844H83.0859V45.5938H78.6016V43.4844ZM91.2656 41.1484C91.2656 40.5495 91.1068 40.1224 90.7891 39.8672C90.4766 39.612 90.0365 39.4844 89.4688 39.4844H87.2266V42.875H89.4688C90.0365 42.875 90.4766 42.737 90.7891 42.4609C91.1068 42.1849 91.2656 41.7474 91.2656 41.1484ZM93.6484 41.1328C93.6484 42.4922 93.3047 43.4531 92.6172 44.0156C91.9297 44.5781 90.9479 44.8594 89.6719 44.8594H87.2266V49H84.8359V37.4844H89.8516C91.0078 37.4844 91.9297 37.7812 92.6172 38.375C93.3047 38.9688 93.6484 39.888 93.6484 41.1328ZM103.82 37.4844V39.5234H100.375V49H97.9531V39.5234H94.4922V37.4844H103.82ZM106.805 37.4844L108.328 44.0781L108.656 45.9141L108.992 44.1172L110.289 37.4844H112.828L114.195 44.0781L114.547 45.9141L114.898 44.1484L116.438 37.4844H118.883L115.641 49H113.344L111.953 42.2656L111.547 40.0391L111.141 42.2656L109.75 49H107.516L104.25 37.4844H106.805ZM121.008 37.2969C121.799 38.401 122.401 39.4323 122.812 40.3906C123.422 41.7969 123.727 43.2135 123.727 44.6406C123.727 46.2083 123.365 47.8021 122.641 49.4219C122.234 50.3281 121.852 51.0104 121.492 51.4688L120.938 52.2266H119.289C119.977 50.987 120.456 49.9714 120.727 49.1797C121.19 47.8411 121.422 46.375 121.422 44.7812C121.422 43.7604 121.339 42.8177 121.172 41.9531C120.917 40.6354 120.461 39.375 119.805 38.1719L119.328 37.2969H121.008Z" fill="#E86E18"/>
<defs>
<clipPath id="clip0_82_2493">
<rect width="52" height="56" fill="white"/>
</clipPath>
<clipPath id="clip1_82_2493">
<rect width="73" height="22" fill="white" transform="translate(64 4)"/>
</clipPath>
</defs>
</svg>
