<svg width="164" height="164" viewBox="0 0 164 164" fill="none" xmlns="http://www.w3.org/2000/svg">
<path fill-rule="evenodd" clip-rule="evenodd" d="M58.7872 25.9598C61.6706 22.6336 65.236 19.9667 69.2413 18.1403C73.2466 16.3139 77.598 15.3708 82 15.375C91.2729 15.375 99.5822 19.475 105.213 25.9598C109.605 25.6463 114.012 26.2816 118.137 27.8226C122.261 29.3637 126.006 31.7744 129.116 34.891C132.231 38.0006 134.641 41.744 136.182 45.8671C137.723 49.9902 138.359 54.3966 138.047 58.7872C141.372 61.6712 144.038 65.2369 145.863 69.2421C147.688 73.2474 148.63 77.5985 148.625 82C148.629 86.4021 147.686 90.7535 145.86 94.7588C144.033 98.7641 141.366 102.329 138.04 105.213C138.352 109.603 137.716 114.01 136.175 118.133C134.634 122.256 132.224 125.999 129.109 129.109C125.999 132.224 122.256 134.634 118.133 136.175C114.01 137.716 109.603 138.352 105.213 138.04C102.329 141.366 98.7641 144.033 94.7588 145.86C90.7535 147.686 86.4021 148.629 82 148.625C77.598 148.629 73.2466 147.686 69.2413 145.86C65.236 144.033 61.6706 141.366 58.7872 138.04C54.3959 138.355 49.9884 137.72 45.864 136.181C41.7396 134.641 37.9949 132.231 34.8842 129.116C31.768 126.005 29.3575 122.261 27.8165 118.137C26.2754 114.012 25.6399 109.605 25.953 105.213C22.628 102.329 19.9624 98.7631 18.1372 94.7579C16.312 90.7526 15.37 86.4015 15.375 82C15.375 72.7272 19.475 64.4178 25.9599 58.7872C25.6473 54.3965 26.2831 49.99 27.8241 45.8669C29.3652 41.7437 31.7753 38.0003 34.891 34.891C38.0003 31.7753 41.7437 29.3651 45.8669 27.8241C49.99 26.2831 54.3965 25.6473 58.7872 25.9598ZM106.668 69.6043C107.078 69.058 107.375 68.4353 107.541 67.7727C107.707 67.1101 107.739 66.421 107.634 65.7459C107.53 65.0709 107.292 64.4235 106.934 63.8418C106.576 63.2601 106.105 62.7558 105.549 62.3586C104.994 61.9614 104.364 61.6793 103.698 61.5289C103.032 61.3785 102.342 61.3628 101.67 61.4827C100.997 61.6026 100.355 61.8557 99.7823 62.2272C99.209 62.5986 98.7158 63.0809 98.3317 63.6457L76.219 94.6007L65.1217 83.5033C64.1502 82.5981 62.8652 82.1052 61.5374 82.1286C60.2097 82.1521 58.9429 82.6899 58.0039 83.6289C57.0649 84.5679 56.5271 85.8347 56.5037 87.1624C56.4802 88.4902 56.9731 89.7752 57.8784 90.7467L73.2534 106.122C73.7794 106.647 74.4137 107.052 75.1119 107.308C75.8102 107.564 76.5559 107.665 77.2971 107.604C78.0383 107.543 78.7573 107.321 79.4042 106.954C80.0512 106.587 80.6105 106.084 81.0434 105.479L106.668 69.6043Z" fill="#008171"/>
<path fill-rule="evenodd" clip-rule="evenodd" d="M54.1272 14.7098C57.5894 10.7157 61.8706 7.51349 66.6799 5.32046C71.4893 3.12744 76.7142 1.99499 82 2.00002C93.1344 2.00002 103.112 6.92309 109.873 14.7098C115.146 14.3332 120.439 15.0961 125.391 16.9465C130.344 18.797 134.84 21.6916 138.574 25.4339C142.315 29.1677 145.209 33.6626 147.059 38.6134C148.91 43.5642 149.673 48.8552 149.298 54.1272C153.291 57.5902 156.492 61.8717 158.683 66.681C160.875 71.4903 162.006 76.7149 162 82C162.005 87.2858 160.873 92.5107 158.68 97.3201C156.487 102.129 153.284 106.411 149.29 109.873C149.665 115.145 148.901 120.436 147.051 125.387C145.201 130.337 142.307 134.832 138.566 138.566C134.832 142.307 130.337 145.201 125.387 147.051C120.436 148.901 115.145 149.665 109.873 149.29C106.411 153.284 102.129 156.487 97.3201 158.68C92.5107 160.873 87.2858 162.005 82 162C76.7142 162.005 71.4893 160.873 66.6799 158.68C61.8706 156.487 57.5894 153.284 54.1272 149.29C48.8544 149.668 43.5621 148.906 38.6097 147.057C33.6573 145.208 29.1608 142.315 25.4257 138.574C21.6839 134.84 18.7895 130.343 16.9391 125.391C15.0887 120.439 14.3256 115.146 14.7016 109.873C10.709 106.41 7.50833 102.128 5.31674 97.319C3.12515 92.5097 1.99398 87.2851 2.00002 82C2.00002 70.8656 6.9231 60.8882 14.7098 54.1272C14.3344 48.8551 15.0979 43.564 16.9483 38.6131C18.7987 33.6622 21.6927 29.1674 25.4339 25.4339C29.1674 21.6927 33.6622 18.7987 38.6131 16.9483C43.564 15.0979 48.8551 14.3344 54.1272 14.7098ZM111.62 67.1159C112.113 66.4599 112.469 65.7121 112.668 64.9165C112.867 64.1209 112.905 63.2935 112.78 62.4829C112.655 61.6723 112.369 60.895 111.939 60.1965C111.509 59.498 110.944 58.8925 110.277 58.4156C109.61 57.9387 108.854 57.5999 108.054 57.4193C107.254 57.2387 106.426 57.2198 105.618 57.3638C104.811 57.5078 104.04 57.8117 103.352 58.2577C102.664 58.7038 102.072 59.2829 101.61 59.961L75.0585 97.1303L61.7333 83.8051C60.5668 82.7181 59.0238 82.1263 57.4296 82.1545C55.8353 82.1826 54.3142 82.8284 53.1867 83.9559C52.0592 85.0834 51.4134 86.6045 51.3852 88.1988C51.3571 89.7931 51.9489 91.336 53.0359 92.5026L71.4974 110.964C72.1292 111.595 72.8907 112.082 73.7291 112.389C74.5676 112.696 75.4629 112.817 76.3529 112.744C77.2429 112.671 78.1063 112.404 78.8831 111.964C79.6599 111.523 80.3315 110.919 80.8513 110.193L111.62 67.1159Z" fill="#008171" fill-opacity="0.1"/>
</svg>
